<?xml version="1.0" encoding="UTF-8" standalone="no"?>
<svg width="230px" height="51px" viewBox="0 0 230 51" version="1.1" xmlns="http://www.w3.org/2000/svg" xmlns:xlink="http://www.w3.org/1999/xlink">
  <title>Edutopia</title>
  <defs></defs>
  <g id="edutopia-logo" fill="#FFFFFF">
    <path d="M12.75,16.36 C9.75,16.36 7.91,18.63 7.23,23.36 C8.03,23.36 8.52,23.3 8.76,23.3 L16.18,23.3 C16.5432016,23.3552849 16.9114312,23.2382485 17.1760661,22.9834148 C17.4407011,22.7285812 17.5715447,22.3650286 17.53,22 C17.53,19.79 16,16.36 12.75,16.36 L12.75,16.36 Z M23.6,39.1 C23.48,40.02 22.6,40.1 21.03,40.57 C18.7855718,41.2887589 16.4546887,41.7024654 14.1,41.8 C7.72,41.8 0,37.57 0,28.19 C0,22.74 3.86,15.07 13.42,15.07 C19.12,15.07 24.7,19.07 24.7,24.02 C24.7,24.6333333 24.15,24.94 23.05,24.94 L8.52,24.94 C8.09,24.94 7,24.58 7,26.54 C7,37.33 10.43,40.54 14.36,40.54 C16.36,40.54 18.9,39.19 21.04,35.88 L23.19,32.57 C23.5,32.08 23.62,31.9 23.86,31.96 L24.6,32.08 C24.7724664,32.2581812 24.8199031,32.5230361 24.72,32.75 L23.6,39.1 Z" id="e"></path>
    <path d="M46.59,18.63 C45.061328,17.5200206 43.2084053,16.9469155 41.32,17 C37.7,17 34.32,19.88 34.32,29.44 C34.32,34.77 36.32,40.23 41.25,40.23 C43.15,40.23 46.58,40.05 46.58,33.61 L46.58,18.61 L46.59,18.63 Z M55.59,0.8 L53.59,1.17 C52.67,1.35 52.18,1.72 52.18,3.07 L52.18,40.88 C52.2134783,41.0059907 52.1953712,41.1401284 52.1296851,41.252733 C52.0639991,41.3653376 51.9561496,41.4471256 51.83,41.48 L51.64,41.48 C51.1525559,41.3195924 50.7103458,41.0453535 50.35,40.68 C49.74,40.19 49.49,39.68 48.69,39.68 C46.97,39.68 46.42,41.4 40.35,41.4 C33.2127978,41.4387757 27.3940543,35.6871715 27.35,28.55 L27.35,27.92 C27.35,22.47 31.15,15.48 40.41,15.48 C42.5463545,15.3513926 44.6745353,15.8409089 46.54,16.89 L46.54,4.29 C46.54,2.02 45.62,0.92 43.72,0.92 L42.62,0.92 C42.44,0.92 42.37,0.8 42.37,0.49 C42.37,0.18 42.48,0 42.61,0 L55.17,0 C55.6,0 55.78,0.12 55.78,0.37 C55.8030533,0.553286201 55.7006882,0.729354233 55.53,0.8 L55.59,0.8 Z" id="d"></path>
    <path d="M71.72,41.12 L70.37,41.12 C64,41.12 59.28,36.28 59.28,31.12 L59.28,18 C59.2973806,17.3681671 59.0292474,16.7621127 58.55,16.35 C58.0828428,15.9625792 57.4968593,15.7472479 56.89,15.74 L56.4,15.74 C55.6666667,15.74 55.3,15.5566667 55.3,15.19 C55.3,14.8233333 55.79,14.64 56.77,14.64 L61.77,14.76 L67.9,14.58 C68.27,14.58 68.45,14.7 68.45,14.95 C68.485516,15.2177564 68.2976593,15.4637593 68.03,15.5 L68.03,15.5 L66.5,15.75 C65.76,15.87 65.4,16.61 65.4,18.02 L65.4,31.5 C65.4,36.71 66.89,40 71.01,40 C75.13,40 76.71,36.69 76.71,31.54 L76.71,18 C76.71,16.59 76.34,15.85 75.61,15.73 L74.08,15.48 C73.8487175,15.4367857 73.6807992,15.2352837 73.68,15 C73.68,14.76 73.86,14.63 74.23,14.63 L80.36,14.81 L85.36,14.69 C86.28,14.69 86.77,14.87 86.77,15.24 C86.77,15.61 86.4,15.79 85.77,15.79 L85.27,15.79 C84.6595244,15.7766232 84.0665584,15.9945203 83.61,16.4 C83.1443079,16.8008519 82.8775381,17.3855528 82.88,18 L82.88,31.07 C82.88,36.28 78.1,41.07 71.73,41.07" id="u"></path>
    <path d="M118.14,23 C117.863505,22.9643346 117.617594,22.806511 117.47,22.57 L116.92,21.47 L114.28,17.79 C113.18,16.26 112.69,15.79 111.58,15.89 L107.58,16.07 C107.390253,16.0571903 107.205966,16.1366298 107.084999,16.2833772 C106.964031,16.4301246 106.921218,16.6261843 106.97,16.81 L106.97,35.61 C106.97,39.35 107.34,39.61 110.22,39.61 C111.14,39.61 111.38,39.73 111.38,39.98 L111.32,40.53 C111.044651,40.6998557 110.709705,40.7435444 110.4,40.65 L97.61,40.65 C97.12,40.65 96.61,40.77 96.61,40.53 L96.61,40.08 C96.61,39.84 96.86,39.77 97.71,39.71 C100.47,39.34 100.84,38.79 100.84,36.77 L100.84,17.65 C100.84,16.5433333 100.473333,15.99 99.74,15.99 L97.42,15.99 C95.09,15.99 94.36,16.3 93.93,16.91 L89.93,22.91 C89.8156358,23.0756853 89.6387021,23.1876229 89.44,23.22 C89.1050641,23.1832238 88.8608137,22.8856825 88.89,22.55 C88.89,22.06 89.13,21.55 89.44,18.55 C89.81,15.24 90.18,14.63 91.28,14.63 C93.92,14.63 94.77,14.88 96.18,14.88 L102.88,15 C106.88,15.06 111.46,14.51 116.49,14.51 C117.22,14.51 117.41,14.82 117.59,15.86 L118,18.26 C118.101727,19.2535217 118.285691,20.2368932 118.55,21.2 C118.695084,21.5122803 118.757085,21.8567294 118.73,22.2 C118.73,22.81 118.55,23.06 118.18,23.06" id="t"></path>
    <path d="M135.29,15.51 C131.12,15.51 128.29,19.86 128.29,27.65 C128.29,35.65 131.11,39.97 135.29,39.97 C139.47,39.97 142.29,35.62 142.29,27.65 C142.29,19.87 139.47,15.51 135.29,15.51 M135.23,41.25 C125.91,41.25 121.01,34.51 121.01,27.58 C121.01,20.65 125.91,14.22 135.23,14.22 C144.55,14.22 149.45,20.66 149.45,27.58 C149.45,34.5 144.55,41.25 135.23,41.25" id="o"></path>
    <path d="M163.24,15.81 L160.6,15.81 C160.23,15.81 160.11,16.3 160.11,16.81 L160.11,34.81 C160.11,38.18 161.58,39.9 165.5,39.9 C169.67,39.9 172.5,35.55 172.5,27.58 C172.5,19.8 170.11,15.75 163.24,15.75 M165.45,41.06 C163.77049,40.9461025 162.100246,40.7222898 160.45,40.39 C160.21,40.39 160.08,40.64 160.08,41.13 L160.08,48.3 C160.08,48.98 160.14,49.65 162.59,49.65 L163.39,49.65 C164.06,49.65 164.39,49.83 164.39,50.14 C164.39,50.69 163.78,51 162.61,50.94 L155.68,50.76 L150,51 C149.794253,51.0445963 149.579324,50.9955857 149.413249,50.8662021 C149.247175,50.7368186 149.147083,50.5404059 149.14,50.33 C149.14,50.15 149.75,50.02 151.04,49.84 L153.04,49.6 C153.71,49.54 154.04,49.42 154.04,46.54 L154.04,17.22 C154.04,16.3 153.12,15.81 151.28,15.81 L150.54,15.81 C149.86,15.81 149.54,15.63 149.54,15.32 C149.54,15.01 150.03,14.71 151.07,14.71 L163.51,14.71 C174.6,14.71 179.69,20.9 179.69,27.46 C179.69,34.26 174.97,41.13 165.47,41.13" id="p"></path>
    <path d="M195.23,15.63 L194.23,15.63 C192.94,15.63 191.41,15.63 191.41,19 L191.41,36.41 C191.41,39.29 192.58,39.78 194.23,39.78 L195.23,39.78 C195.41,39.78 195.48,39.9 195.48,40.21 C195.48,40.52 195.48,40.7 195.3,40.7 L181.3,40.7 C181.12,40.7 181.12,40.52 181.12,40.21 C181.12,39.9 181.18,39.78 181.36,39.78 L182.36,39.78 C184.01,39.78 185.18,39.29 185.18,36.41 L185.18,19 C185.18,15.63 183.65,15.63 182.36,15.63 L181.36,15.63 C181.18,15.63 181.05,15.51 181.05,15.2 C181.05,14.89 181.11,14.65 181.3,14.65 L195.3,14.65 C195.48,14.65 195.54,14.83 195.54,15.2 C195.54,15.57 195.42,15.63 195.23,15.63" id="i"></path>
    <path d="M218.52,27.33 C218.52,20.65 216.52,16.33 211.04,16.33 C207.36,16.33 204.12,19.82 204.12,28.16 C204.12,36.5 207.37,40 211,40 C214.86,40 218.48,36.69 218.48,33.93 L218.48,27.33 L218.48,27.33 L218.52,27.33 Z M224.59,41 C222.023414,41.0292429 219.781693,39.26997 219.2,36.77 C217.419517,39.482771 214.441967,41.1725306 211.2,41.31 C203.36,41.31 197.2,36.31 197.2,28.25 C197.2,22.86 201.2,15.13 211.42,15.13 C217.49,15.13 225.03,18.93 225.03,29.78 L225.03,35.42 C225.03,37.14 225.21,38.3 226.56,38.3 C228.56,38.3 229.01,35.73 229.5,35.73 C229.648873,35.7450869 229.785516,35.8191269 229.87945,35.935605 C229.973384,36.0520832 230.016795,36.2013101 230,36.35 L230,36.4 C229.608913,39.0709145 227.29912,41.0385155 224.6,41 L224.59,41 Z" id="a"></path>
  </g>
</svg>