<?xml version="1.0" encoding="UTF-8" standalone="no"?>
<svg width="42px" height="42px" viewBox="0 0 42 42" version="1.1" xmlns="http://www.w3.org/2000/svg" xmlns:xlink="http://www.w3.org/1999/xlink">
  <title>Instagram</title>
  <defs></defs>
  <g id="instagram-circle">
    <path d="M42,21 C42,32.598 32.598,42 21,42 C9.402,42 0,32.598 0,21 C0,9.402 9.402,0 21,0 C32.598,0 42,9.402 42,21" id="circle" fill="#666666"></path>
    <g id="icon" transform="translate(8.000000, 8.000000)" fill="#FFFFFF">
      <path d="M13,0.5795 C9.627,0.5795 9.204,0.5935 7.879,0.6545 C6.557,0.7145 5.654,0.9245 4.864,1.2315 C4.047,1.5485 3.355,1.9735 2.664,2.6645 C1.974,3.3545 1.549,4.0475 1.232,4.8645 C0.924,5.6545 0.715,6.5575 0.654,7.8795 C0.594,9.2035 0.579,9.6265 0.579,13.0005 C0.579,16.3735 0.594,16.7965 0.654,18.1205 C0.715,19.4435 0.924,20.3455 1.232,21.1355 C1.549,21.9525 1.974,22.6455 2.664,23.3355 C3.355,24.0265 4.047,24.4515 4.864,24.7685 C5.654,25.0755 6.557,25.2855 7.879,25.3455 C9.204,25.4065 9.627,25.4205 13,25.4205 C16.373,25.4205 16.796,25.4065 18.121,25.3455 C19.443,25.2855 20.346,25.0755 21.136,24.7685 C21.953,24.4515 22.645,24.0265 23.336,23.3355 C24.026,22.6455 24.451,21.9525 24.768,21.1355 C25.076,20.3455 25.285,19.4435 25.346,18.1205 C25.406,16.7965 25.421,16.3735 25.421,13.0005 C25.421,9.6265 25.406,9.2035 25.346,7.8795 C25.285,6.5575 25.076,5.6545 24.768,4.8645 C24.451,4.0475 24.026,3.3545 23.336,2.6645 C22.645,1.9735 21.953,1.5485 21.136,1.2315 C20.346,0.9245 19.443,0.7145 18.121,0.6545 C16.796,0.5935 16.373,0.5795 13,0.5795 M13,2.8175 C16.316,2.8175 16.709,2.8305 18.019,2.8895 C19.23,2.9455 19.888,3.1475 20.325,3.3175 C20.905,3.5425 21.319,3.8115 21.753,4.2465 C22.188,4.6815 22.457,5.0955 22.683,5.6745 C22.853,6.1125 23.055,6.7705 23.11,7.9815 C23.17,9.2905 23.183,9.6835 23.183,13.0005 C23.183,16.3165 23.17,16.7095 23.11,18.0185 C23.055,19.2295 22.853,19.8875 22.683,20.3255 C22.457,20.9055 22.188,21.3185 21.753,21.7535 C21.319,22.1885 20.905,22.4575 20.325,22.6825 C19.888,22.8525 19.23,23.0545 18.019,23.1105 C16.709,23.1695 16.317,23.1825 13,23.1825 C9.683,23.1825 9.291,23.1695 7.981,23.1105 C6.77,23.0545 6.112,22.8525 5.675,22.6825 C5.095,22.4575 4.681,22.1885 4.247,21.7535 C3.812,21.3185 3.543,20.9055 3.317,20.3255 C3.147,19.8875 2.945,19.2295 2.89,18.0185 C2.83,16.7095 2.817,16.3165 2.817,13.0005 C2.817,9.6835 2.83,9.2905 2.89,7.9815 C2.945,6.7705 3.147,6.1125 3.317,5.6745 C3.543,5.0955 3.812,4.6815 4.247,4.2465 C4.681,3.8115 5.095,3.5425 5.675,3.3175 C6.112,3.1475 6.77,2.9455 7.981,2.8895 C9.291,2.8305 9.684,2.8175 13,2.8175" id="Fill-3"></path>
      <path d="M13,17.1402 C10.713,17.1402 8.86,15.2862 8.86,13.0002 C8.86,10.7132 10.713,8.8602 13,8.8602 C15.287,8.8602 17.14,10.7132 17.14,13.0002 C17.14,15.2862 15.287,17.1402 13,17.1402 M13,6.6222 C9.477,6.6222 6.622,9.4772 6.622,13.0002 C6.622,16.5222 9.477,19.3782 13,19.3782 C16.523,19.3782 19.378,16.5222 19.378,13.0002 C19.378,9.4772 16.523,6.6222 13,6.6222" id="Fill-5"></path>
      <path d="M21.1206,6.3699 C21.1206,7.1929 20.4536,7.8599 19.6306,7.8599 C18.8066,7.8599 18.1396,7.1929 18.1396,6.3699 C18.1396,5.5469 18.8066,4.8799 19.6306,4.8799 C20.4536,4.8799 21.1206,5.5469 21.1206,6.3699" id="Fill-7"></path>
    </g>
  </g>
</svg>