<?xml version="1.0" encoding="UTF-8" standalone="no"?>
<svg width="42px" height="42px" viewBox="0 0 42 42" version="1.1" xmlns="http://www.w3.org/2000/svg" xmlns:xlink="http://www.w3.org/1999/xlink">
  <title>Pinterest</title>
  <defs></defs>
  <g id="pinterest-circle">
    <circle id="Oval" fill="#BD081C" cx="21" cy="21" r="21"></circle>
    <path d="M13.3565571,40.5582485 C13.0759039,38.5508518 13.0996829,36.5126009 13.4270914,34.5122984 C13.7898395,32.9302749 15.8857175,24.0931112 15.8857175,24.0931112 C15.4598885,23.1110016 15.2469691,22.0498123 15.2609847,20.9794469 C15.2609847,18.0572377 16.9538092,15.8806957 19.0597635,15.8806957 C20.8533514,15.8806957 21.7199164,17.2208813 21.7199164,18.8432112 C21.7199164,20.6469197 20.571214,23.3373674 19.9767101,25.8363601 C19.7247573,26.7770706 19.9414234,27.7815532 20.558751,28.5347513 C21.1760786,29.2879494 22.1184532,29.697606 23.0902981,29.6352321 C26.8185426,29.6352321 29.6902985,25.695288 29.6902985,20.0221715 C29.6902985,14.9838798 26.0728937,11.4772288 20.9138094,11.4772288 C18.4378911,11.3643156 16.0236426,12.2697059 14.2324982,13.9828509 C12.4413538,15.695996 11.4294036,18.0676029 11.4319768,20.5461538 C11.4337824,22.2696706 11.9804444,23.9484931 12.9938089,25.3426075 C13.1447223,25.50486 13.1984003,25.7349138 13.1348777,25.9472026 C12.9736563,26.6122571 12.6209845,28.0330553 12.5504501,28.3252762 C12.4799158,28.6174972 12.24816,28.7887991 11.8451066,28.6074206 C9.22525908,27.388154 7.58281623,23.5691289 7.58281623,20.4756178 C7.59289257,13.865379 12.4093814,7.73881633 21.468008,7.73881633 C28.7531993,7.73881633 34.4161004,12.9282568 34.4161004,19.8307164 C34.4161004,27.0657033 29.8515199,32.9302749 23.5235806,32.9302749 C21.6130758,32.9985504 19.7987755,32.091378 18.7070917,30.5219714 L17.397168,35.5602631 C16.7729318,37.4992124 15.8990288,39.3486804 14.7974732,41.0620777 C20.2462086,43.1459099 3.49356618,37.0304458 13.3565571,40.5582485 Z" id="Shape" fill="#FFFFFF"></path>
  </g>
</svg>