<?xml version="1.0" encoding="UTF-8" standalone="no"?>
<svg width="42px" height="42px" viewBox="0 0 42 42" version="1.1" xmlns="http://www.w3.org/2000/svg" xmlns:xlink="http://www.w3.org/1999/xlink">
  <title>Twitter</title>
  <defs></defs>
  <g id="twitter-circle">
    <circle id="Oval" fill="#55ACEE" cx="21" cy="21" r="21"></circle>
    <path d="M33.1697561,13.6513162 C32.235619,14.0662389 31.2446424,14.3390164 30.2297561,14.4605845 C31.2919731,13.8265841 32.0888502,12.829578 32.4731707,11.6537552 C31.4692426,12.2488903 30.3709976,12.6680942 29.2258537,12.8932674 C27.6408634,11.1972042 25.1133761,10.7791736 23.0666941,11.8745809 C21.020012,12.9699882 19.9659367,15.3049115 20.4980488,17.5644869 C16.3734078,17.35358 12.5332027,15.3980925 9.93658537,12.1864381 C8.57849418,14.5259417 9.27384787,17.5182056 11.5243902,19.0191211 C10.7124198,18.9906619 9.91886766,18.7694504 9.20926829,18.3737552 L9.20926829,18.4352186 C9.20877145,20.8695213 10.9217094,22.9678703 13.3068293,23.4547308 C12.5522944,23.6618945 11.7603264,23.693433 10.9917073,23.546926 C11.6618468,25.6331033 13.5847988,27.0619349 15.7756098,27.1015601 C13.9624411,28.5277219 11.7209791,29.300142 9.41414634,29.2937552 C9.00675235,29.2937081 8.59971185,29.2697645 8.19512195,29.2220479 C12.6809587,32.0983223 18.3798993,32.2936092 23.0521062,29.7311557 C27.7243131,27.1687022 30.6229524,22.2581063 30.6087805,16.929365 L30.6087805,16.2635113 C31.6099676,15.5508083 32.4770164,14.6664186 33.1697561,13.6513162 L33.1697561,13.6513162 Z" id="Shape" fill="#FFFFFF"></path>
  </g>
</svg>