<?xml version="1.0" encoding="UTF-8" standalone="no"?>
<svg width="42px" height="42px" viewBox="0 0 42 42" version="1.1" xmlns="http://www.w3.org/2000/svg" xmlns:xlink="http://www.w3.org/1999/xlink">
  <title>youtube-share</title>
  <defs>
    <linearGradient x1="49.9999553%" y1="0%" x2="50%" y2="100%" id="linearGradient-1">
        <stop stop-color="#E52D27" offset="0%"></stop>
        <stop stop-color="#CA2429" offset="51.53%"></stop>
        <stop stop-color="#B31218" offset="100%"></stop>
    </linearGradient>
  </defs>
  <g id="youtube-share">
    <path d="M21,0 C9.40200159,0 0,9.40200159 0,21 C0,32.5979984 9.40200159,42 21,42 C32.5979984,42 42,32.5979984 42,21 C42,9.40200159 32.5979984,0 21,0 L21,0 Z" id="circle" fill="url(#linearGradient-1)"></path>
    <polygon id="shadow" fill-opacity="0.25" fill="#000000" points="17.5854492 16.2244835 25.1892526 21.328125 25.921875 20.5562242"></polygon>
    <path d="M34.5055327,26.2606536 C34.5055327,26.2606536 34.2358762,28.1900103 33.4104431,29.0382486 C32.3618491,30.1522665 31.1875178,30.158812 30.6490189,30.2244387 C26.7916909,30.5058068 21,30.515625 21,30.515625 C21,30.515625 13.8332507,30.4492232 11.6284171,30.2342569 C11.0149281,30.1177307 9.63896506,30.1514053 8.58955691,29.0373874 C7.7633097,28.1891491 7.49446727,26.2597923 7.49446727,26.2597923 C7.49446727,26.2597923 7.21875,23.9956704 7.21875,21.7292231 L7.21875,19.6062589 C7.21875,17.3413619 7.49446727,15.0764649 7.49446727,15.0764649 C7.49446727,15.0764649 7.76412382,13.1462469 8.58955691,12.2964583 C9.63896506,11.1824404 10.8124822,11.175895 11.3509811,11.1127658 C15.207495,10.828125 20.9931252,10.828125 20.9931252,10.828125 C21.0060607,10.828125 26.7916909,10.828125 30.6490189,11.1127658 C31.1875178,11.175895 32.3618491,11.1825265 33.4104431,12.2964583 C34.2366903,13.146333 34.5055327,15.0764649 34.5055327,15.0764649 C34.5055327,15.0764649 34.78125,17.3413619 34.78125,19.6070341 L34.78125,21.7300844 C34.78125,23.9957565 34.5055327,26.2606536 34.5055327,26.2606536 Z M18.046875,24.609375 L25.59375,20.5078125 L18.046875,16.40625 L18.046875,24.609375 Z" id="icon" fill="#F2F2F2"></path>
  </g>
</svg>